STARTFONT 2.1
FONT -AmsteinGraphics-DMCP-Regular-I-Normal--34-340-36-38-P-86-ISO10646-1
SIZE 5 173 173
FONTBOUNDINGBOX 13 21 -1 -4
STARTPROPERTIES 30
FAMILY_NAME "DMCP"
DEFAULT_CHAR -1
FOUNDRY "AmsteinGraphics"
COPYRIGHT "Copyright (c) 2022 SwissMicros"
CODEPAGE "MS Windows 1252 Western (ANSI)"
ENC_MODE 2
ENC_ID 1
CREATION_YEAR 2022
WEIGHT_NAME "Regular"
SLANT "I"
SETWIDTH_NAME "Normal"
SPACING "P"
WEIGHT 400
HI_VERSION 1
MAC_FONT_STYLE 2
CP_RANGE_1 65535
CP_RANGE_2 65535
FONTNAME_REGISTRY "-"
CHARSET_REGISTRY "ISO10646"
CHARSET_ENCODING "1"
BREAK_CHAR 32
PIXEL_SIZE 12
POINT_SIZE 50
FONT_ASCENT 14
FONT_DESCENT 4
RESOLUTION_X 173
RESOLUTION_Y 173
AVERAGE_WIDTH 86
X_HEIGHT 10
CAP_HEIGHT 13
ENDPROPERTIES
CHARS 289
STARTCHAR space.uni0020
ENCODING 32
SWIDTH 557 0
DWIDTH 10 0
BBX 0 0 0 0
BITMAP
ENDCHAR
STARTCHAR exclam.uni0021
ENCODING 33
SWIDTH 557 0
DWIDTH 10 0
BBX 4 13 3 0
BITMAP
3000
3000
3000
6000
6000
6000
6000
6000
4000
0000
0000
C000
C000
ENDCHAR
STARTCHAR quotedbl.uni0022
ENCODING 34
SWIDTH 557 0
DWIDTH 10 0
BBX 4 5 3 8
BITMAP
9000
9000
9000
9000
9000
ENDCHAR
STARTCHAR numbersign.uni0023
ENCODING 35
SWIDTH 557 0
DWIDTH 10 0
BBX 10 12 0 0
BITMAP
0900
0900
0900
7FC0
7FC0
1200
1200
FF80
FF80
2400
2400
2400
ENDCHAR
STARTCHAR dollar.uni0024
ENCODING 36
SWIDTH 557 0
DWIDTH 10 0
BBX 9 17 1 -3
BITMAP
0400
0400
1F00
3F80
7900
6800
6800
3800
0E00
0B00
1300
9700
FE00
7C00
1000
1000
1000
ENDCHAR
STARTCHAR percent.uni0025
ENCODING 37
SWIDTH 557 0
DWIDTH 10 0
BBX 10 13 0 0
BITMAP
7000
D800
D800
D800
D800
7380
0C00
7380
06C0
06C0
06C0
06C0
0380
ENDCHAR
STARTCHAR ampersand.uni0026
ENCODING 38
SWIDTH 557 0
DWIDTH 10 0
BBX 10 13 0 0
BITMAP
0E00
1F00
1900
1800
1800
0800
3C00
6CC0
C680
C780
E700
FF00
7B00
ENDCHAR
STARTCHAR quotesingle.uni0027
ENCODING 39
SWIDTH 557 0
DWIDTH 10 0
BBX 1 5 4 8
BITMAP
8000
8000
8000
8000
8000
ENDCHAR
STARTCHAR parenleft.uni0028
ENCODING 40
SWIDTH 557 0
DWIDTH 10 0
BBX 6 16 3 -2
BITMAP
0C00
1800
1000
3000
6000
6000
6000
C000
C000
C000
C000
C000
C000
4000
6000
6000
ENDCHAR
STARTCHAR parenright.uni0029
ENCODING 41
SWIDTH 557 0
DWIDTH 10 0
BBX 6 16 1 -2
BITMAP
1800
1800
0800
0C00
0C00
0C00
0C00
0C00
0C00
1800
1800
1800
3000
2000
6000
C000
ENDCHAR
STARTCHAR asterisk.uni002A
ENCODING 42
SWIDTH 557 0
DWIDTH 10 0
BBX 7 8 2 5
BITMAP
1000
9200
5400
3800
3800
5400
9200
1000
ENDCHAR
STARTCHAR plus.uni002B
ENCODING 43
SWIDTH 557 0
DWIDTH 10 0
BBX 10 10 0 1
BITMAP
0C00
0C00
0C00
0C00
FFC0
FFC0
0C00
0C00
0C00
0C00
ENDCHAR
STARTCHAR comma.uni002C
ENCODING 44
SWIDTH 557 0
DWIDTH 10 0
BBX 3 5 2 -2
BITMAP
6000
6000
6000
C000
8000
ENDCHAR
STARTCHAR hyphen.uni002D
ENCODING 45
SWIDTH 557 0
DWIDTH 10 0
BBX 5 1 3 5
BITMAP
F800
ENDCHAR
STARTCHAR period.uni002E
ENCODING 46
SWIDTH 557 0
DWIDTH 10 0
BBX 2 3 3 0
BITMAP
C000
C000
C000
ENDCHAR
STARTCHAR slash.uni002F
ENCODING 47
SWIDTH 557 0
DWIDTH 10 0
BBX 9 16 0 -2
BITMAP
0180
0180
0300
0300
0600
0600
0C00
0C00
1800
1800
3000
3000
6000
6000
C000
C000
ENDCHAR
STARTCHAR zero.uni0030
ENCODING 48
SWIDTH 557 0
DWIDTH 10 0
BBX 9 13 1 0
BITMAP
0F00
3F00
3180
6380
6780
CD80
D980
F180
E300
C300
C600
7E00
7800
ENDCHAR
STARTCHAR one.uni0031
ENCODING 49
SWIDTH 557 0
DWIDTH 10 0
BBX 8 13 1 0
BITMAP
0E00
3E00
2600
0600
0C00
0C00
0C00
0C00
0C00
1800
1800
FF00
FF00
ENDCHAR
STARTCHAR two.uni0032
ENCODING 50
SWIDTH 557 0
DWIDTH 10 0
BBX 9 13 0 0
BITMAP
1F00
3F80
2180
0180
0180
0380
0700
0E00
1C00
3800
7000
FE00
FE00
ENDCHAR
STARTCHAR three.uni0033
ENCODING 51
SWIDTH 557 0
DWIDTH 10 0
BBX 9 13 0 0
BITMAP
1F00
3F80
2180
0180
0300
1E00
1E00
0300
0300
0300
8700
FE00
7C00
ENDCHAR
STARTCHAR four.uni0034
ENCODING 52
SWIDTH 557 0
DWIDTH 10 0
BBX 9 13 0 0
BITMAP
0180
0380
0580
0B00
1B00
1300
2300
4300
FF80
FF80
0600
0600
0600
ENDCHAR
STARTCHAR five.uni0035
ENCODING 53
SWIDTH 557 0
DWIDTH 10 0
BBX 10 13 0 0
BITMAP
1FC0
1F80
1800
3000
3E00
3F00
2380
0180
0180
0180
8700
FE00
7C00
ENDCHAR
STARTCHAR six.uni0036
ENCODING 54
SWIDTH 557 0
DWIDTH 10 0
BBX 8 13 1 0
BITMAP
0F00
1F00
3100
6000
6000
7E00
DF00
E300
C300
C300
C600
7E00
3C00
ENDCHAR
STARTCHAR seven.uni0037
ENCODING 55
SWIDTH 557 0
DWIDTH 10 0
BBX 9 13 1 0
BITMAP
7F80
7F80
0300
0600
0600
0C00
0C00
1800
3800
3000
7000
6000
E000
ENDCHAR
STARTCHAR eight.uni0038
ENCODING 56
SWIDTH 557 0
DWIDTH 10 0
BBX 9 13 0 0
BITMAP
1F00
3F80
7180
6180
6300
3E00
3E00
6300
C300
C300
C700
FE00
7C00
ENDCHAR
STARTCHAR nine.uni0039
ENCODING 57
SWIDTH 557 0
DWIDTH 10 0
BBX 9 13 0 0
BITMAP
1E00
3F00
3180
6180
6180
6380
7D80
3F00
0300
0700
8E00
FC00
7800
ENDCHAR
STARTCHAR colon.uni003A
ENCODING 58
SWIDTH 557 0
DWIDTH 10 0
BBX 4 9 3 0
BITMAP
3000
3000
3000
0000
0000
0000
C000
C000
C000
ENDCHAR
STARTCHAR semicolon.uni003B
ENCODING 59
SWIDTH 557 0
DWIDTH 10 0
BBX 4 11 2 -2
BITMAP
3000
3000
3000
0000
0000
0000
6000
6000
6000
C000
8000
ENDCHAR
STARTCHAR less.uni003C
ENCODING 60
SWIDTH 557 0
DWIDTH 10 0
BBX 9 9 1 1
BITMAP
0080
0780
1E00
7000
C000
7000
1E00
0780
0080
ENDCHAR
STARTCHAR equal.uni003D
ENCODING 61
SWIDTH 557 0
DWIDTH 10 0
BBX 9 6 1 3
BITMAP
FF80
FF80
0000
0000
FF80
FF80
ENDCHAR
STARTCHAR greater.uni003E
ENCODING 62
SWIDTH 557 0
DWIDTH 10 0
BBX 9 9 1 1
BITMAP
8000
F000
3C00
0700
0180
0700
3C00
F000
8000
ENDCHAR
STARTCHAR question.uni003F
ENCODING 63
SWIDTH 557 0
DWIDTH 10 0
BBX 7 13 3 0
BITMAP
7C00
FE00
8600
0600
0C00
1800
3000
6000
6000
C000
0000
C000
C000
ENDCHAR
STARTCHAR at.uni0040
ENCODING 64
SWIDTH 557 0
DWIDTH 10 0
BBX 10 15 0 -3
BITMAP
0F80
18C0
30C0
67C0
66C0
4C80
CC80
CC80
CC80
CD00
C700
C000
6000
3000
1E00
ENDCHAR
STARTCHAR A.uni0041
ENCODING 65
SWIDTH 557 0
DWIDTH 10 0
BBX 10 13 -1 0
BITMAP
0380
0380
0780
0780
0D80
0D80
1980
1980
3FC0
3FC0
60C0
60C0
C0C0
ENDCHAR
STARTCHAR B.uni0042
ENCODING 66
SWIDTH 557 0
DWIDTH 10 0
BBX 10 13 0 0
BITMAP
3F80
3FC0
30C0
60C0
6180
7F00
7F00
6180
6180
6180
C380
FF00
FC00
ENDCHAR
STARTCHAR C.uni0043
ENCODING 67
SWIDTH 557 0
DWIDTH 10 0
BBX 9 13 1 0
BITMAP
0F00
1F80
3880
7000
6000
E000
C000
C000
C000
C000
E200
7E00
3C00
ENDCHAR
STARTCHAR D.uni0044
ENCODING 68
SWIDTH 557 0
DWIDTH 10 0
BBX 9 13 0 0
BITMAP
3E00
3F00
3380
6180
6180
6180
6180
6180
6300
6300
C600
FE00
F800
ENDCHAR
STARTCHAR E.uni0045
ENCODING 69
SWIDTH 557 0
DWIDTH 10 0
BBX 10 13 0 0
BITMAP
3FC0
3FC0
3000
6000
6000
7F80
7F00
6000
6000
6000
C000
FF00
FF00
ENDCHAR
STARTCHAR F.uni0046
ENCODING 70
SWIDTH 557 0
DWIDTH 10 0
BBX 10 13 1 0
BITMAP
3FC0
3FC0
3000
6000
6000
7F00
7F00
6000
6000
6000
C000
C000
C000
ENDCHAR
STARTCHAR G.uni0047
ENCODING 71
SWIDTH 557 0
DWIDTH 10 0
BBX 9 13 1 0
BITMAP
0F00
1F80
3080
6000
6000
E700
C700
C300
C600
C600
E600
7E00
3C00
ENDCHAR
STARTCHAR H.uni0048
ENCODING 72
SWIDTH 557 0
DWIDTH 10 0
BBX 10 13 0 0
BITMAP
30C0
30C0
30C0
6180
6180
7F80
7F80
6180
6180
6180
C300
C300
C300
ENDCHAR
STARTCHAR I.uni0049
ENCODING 73
SWIDTH 557 0
DWIDTH 10 0
BBX 9 13 0 0
BITMAP
3F80
3F80
0E00
0C00
0C00
0C00
0C00
1C00
1800
1800
1800
FE00
FE00
ENDCHAR
STARTCHAR J.uni004A
ENCODING 74
SWIDTH 557 0
DWIDTH 10 0
BBX 9 13 0 0
BITMAP
0F80
0F80
0180
0300
0300
0300
0300
0300
0600
0600
8600
FC00
7800
ENDCHAR
STARTCHAR K.uni004B
ENCODING 75
SWIDTH 557 0
DWIDTH 10 0
BBX 10 13 0 0
BITMAP
30C0
3180
3300
6600
6C00
7800
7C00
6C00
6E00
6600
C700
C300
C300
ENDCHAR
STARTCHAR L.uni004C
ENCODING 76
SWIDTH 557 0
DWIDTH 10 0
BBX 8 13 1 0
BITMAP
3000
3000
3000
6000
6000
6000
6000
6000
6000
6000
C000
FF00
FF00
ENDCHAR
STARTCHAR M.uni004D
ENCODING 77
SWIDTH 557 0
DWIDTH 10 0
BBX 11 13 0 0
BITMAP
3860
38E0
28E0
6940
6B40
6A40
6EC0
6CC0
60C0
40C0
C080
C180
C180
ENDCHAR
STARTCHAR N.uni004E
ENCODING 78
SWIDTH 557 0
DWIDTH 10 0
BBX 10 13 0 0
BITMAP
30C0
30C0
30C0
6980
6980
6980
6D80
6D80
6D80
6580
C700
C700
C700
ENDCHAR
STARTCHAR O.uni004F
ENCODING 79
SWIDTH 557 0
DWIDTH 10 0
BBX 9 13 1 0
BITMAP
0F00
3F00
3180
6180
6180
C180
C180
C180
C300
C300
C600
7E00
7800
ENDCHAR
STARTCHAR P.uni0050
ENCODING 80
SWIDTH 557 0
DWIDTH 10 0
BBX 10 13 0 0
BITMAP
3F00
3FC0
30C0
60C0
60C0
6180
7F80
7E00
6000
6000
C000
C000
C000
ENDCHAR
STARTCHAR Q.uni0051
ENCODING 81
SWIDTH 557 0
DWIDTH 10 0
BBX 9 15 1 -2
BITMAP
0F00
3F00
3180
6180
6180
C180
C180
C100
C300
C300
C600
7E00
7800
0C00
0400
ENDCHAR
STARTCHAR R.uni0052
ENCODING 82
SWIDTH 557 0
DWIDTH 10 0
BBX 9 13 0 0
BITMAP
3F00
3F80
3180
6180
6180
6300
7E00
7C00
6600
6600
C700
C300
C300
ENDCHAR
STARTCHAR S.uni0053
ENCODING 83
SWIDTH 557 0
DWIDTH 10 0
BBX 10 13 0 0
BITMAP
0F80
1FC0
3840
3000
3000
3E00
0F00
0380
0180
0180
8380
FF00
7C00
ENDCHAR
STARTCHAR T.uni0054
ENCODING 84
SWIDTH 557 0
DWIDTH 10 0
BBX 10 13 1 0
BITMAP
FFC0
FFC0
0C00
0C00
0C00
1800
1800
1800
1800
1800
3000
3000
3000
ENDCHAR
STARTCHAR U.uni0055
ENCODING 85
SWIDTH 557 0
DWIDTH 10 0
BBX 10 13 1 0
BITMAP
30C0
30C0
3180
6180
6180
6180
6180
C300
C300
C300
C700
FE00
7C00
ENDCHAR
STARTCHAR V.uni0056
ENCODING 86
SWIDTH 557 0
DWIDTH 10 0
BBX 9 13 2 0
BITMAP
C180
C300
C300
C600
C600
EE00
6C00
7C00
7800
7800
7000
7000
6000
ENDCHAR
STARTCHAR W.uni0057
ENCODING 87
SWIDTH 557 0
DWIDTH 10 0
BBX 11 13 1 0
BITMAP
C060
C0C0
C0C0
C0C0
CD80
CD80
DD80
DF00
FF00
EE00
EE00
EE00
CC00
ENDCHAR
STARTCHAR X.uni0058
ENCODING 88
SWIDTH 557 0
DWIDTH 10 0
BBX 12 13 -1 0
BITMAP
1870
0CE0
0DC0
0F80
0700
0700
0600
0F00
1F00
1B00
3180
7180
E1C0
ENDCHAR
STARTCHAR Y.uni0059
ENCODING 89
SWIDTH 557 0
DWIDTH 10 0
BBX 10 13 1 0
BITMAP
C1C0
6380
6300
7600
3E00
3C00
1800
1800
1800
1800
3000
3000
3000
ENDCHAR
STARTCHAR Z.uni005A
ENCODING 90
SWIDTH 557 0
DWIDTH 10 0
BBX 11 13 0 0
BITMAP
1FE0
3FE0
01C0
0180
0300
0700
0E00
1C00
1800
3800
7000
FF80
FF80
ENDCHAR
STARTCHAR bracketleft.uni005B
ENCODING 91
SWIDTH 557 0
DWIDTH 10 0
BBX 7 16 2 -2
BITMAP
1E00
1E00
1800
3000
3000
3000
3000
3000
6000
6000
6000
6000
6000
E000
F000
F000
ENDCHAR
STARTCHAR backslash.uni005C
ENCODING 92
SWIDTH 557 0
DWIDTH 10 0
BBX 4 15 3 -2
BITMAP
C000
C000
C000
C000
6000
6000
6000
6000
6000
6000
6000
3000
3000
3000
3000
ENDCHAR
STARTCHAR bracketright.uni005D
ENCODING 93
SWIDTH 557 0
DWIDTH 10 0
BBX 7 16 1 -2
BITMAP
1E00
1E00
0E00
0C00
0C00
0C00
0C00
0C00
1800
1800
1800
1800
1800
3000
F000
F000
ENDCHAR
STARTCHAR asciicircum.uni005E
ENCODING 94
SWIDTH 557 0
DWIDTH 10 0
BBX 9 5 1 8
BITMAP
1C00
1400
3600
6300
C180
ENDCHAR
STARTCHAR underscore.uni005F
ENCODING 95
SWIDTH 557 0
DWIDTH 10 0
BBX 9 2 0 -4
BITMAP
FF80
FF80
ENDCHAR
STARTCHAR grave.uni0060
ENCODING 96
SWIDTH 557 0
DWIDTH 10 0
BBX 3 3 4 11
BITMAP
C000
4000
2000
ENDCHAR
STARTCHAR a.uni0061
ENCODING 97
SWIDTH 557 0
DWIDTH 10 0
BBX 8 10 1 0
BITMAP
1E00
3F00
2300
0300
3F00
7F00
C600
C600
FE00
7C00
ENDCHAR
STARTCHAR b.uni0062
ENCODING 98
SWIDTH 557 0
DWIDTH 10 0
BBX 9 14 0 0
BITMAP
1800
1800
3800
3000
3700
3F80
3180
7180
6180
6180
6300
6300
DE00
DC00
ENDCHAR
STARTCHAR c.uni0063
ENCODING 99
SWIDTH 557 0
DWIDTH 10 0
BBX 8 10 1 0
BITMAP
1E00
3F00
7100
6000
C000
C000
C000
E200
7E00
3C00
ENDCHAR
STARTCHAR d.uni0064
ENCODING 100
SWIDTH 557 0
DWIDTH 10 0
BBX 9 14 1 0
BITMAP
0180
0180
0300
0300
3B00
7F00
6700
E600
C600
C600
C600
CE00
FC00
6C00
ENDCHAR
STARTCHAR e.uni0065
ENCODING 101
SWIDTH 557 0
DWIDTH 10 0
BBX 9 10 1 0
BITMAP
1E00
3F00
7180
6180
FF80
FF80
C000
C200
7E00
3C00
ENDCHAR
STARTCHAR f.uni0066
ENCODING 102
SWIDTH 557 0
DWIDTH 10 0
BBX 8 14 2 0
BITMAP
0F00
0F00
1800
1800
FE00
FE00
1800
3000
3000
3000
3000
3000
6000
6000
ENDCHAR
STARTCHAR g.uni0067
ENCODING 103
SWIDTH 557 0
DWIDTH 10 0
BBX 9 14 1 -4
BITMAP
1D80
3D80
7380
6300
C300
C300
C300
C700
FE00
7600
0600
8E00
FC00
7800
ENDCHAR
STARTCHAR h.uni0068
ENCODING 104
SWIDTH 557 0
DWIDTH 10 0
BBX 8 14 1 0
BITMAP
3000
3000
3000
7000
6E00
6F00
7300
6300
6300
6300
E300
C600
C600
C600
ENDCHAR
STARTCHAR i.uni0069
ENCODING 105
SWIDTH 557 0
DWIDTH 10 0
BBX 7 14 1 0
BITMAP
0600
0600
0000
0000
3C00
3C00
1800
1800
1800
1800
3000
3000
FE00
FE00
ENDCHAR
STARTCHAR j.uni006A
ENCODING 106
SWIDTH 557 0
DWIDTH 10 0
BBX 8 18 0 -4
BITMAP
0300
0300
0000
0000
1E00
1E00
0600
0C00
0C00
0C00
0C00
0C00
0C00
1800
1800
1800
F800
F000
ENDCHAR
STARTCHAR k.uni006B
ENCODING 107
SWIDTH 557 0
DWIDTH 10 0
BBX 8 14 1 0
BITMAP
3000
3000
3000
7000
6300
6600
6C00
7800
7800
7800
EC00
CC00
C600
C600
ENDCHAR
STARTCHAR l.uni006C
ENCODING 108
SWIDTH 557 0
DWIDTH 10 0
BBX 6 14 2 0
BITMAP
7800
F800
1800
1800
3000
3000
3000
3000
7000
6000
6000
6000
7C00
3C00
ENDCHAR
STARTCHAR m.uni006D
ENCODING 109
SWIDTH 557 0
DWIDTH 10 0
BBX 11 10 -1 0
BITMAP
36E0
3FE0
7760
6660
6660
6660
6EE0
ECC0
CCC0
CCC0
ENDCHAR
STARTCHAR n.uni006E
ENCODING 110
SWIDTH 557 0
DWIDTH 10 0
BBX 8 10 1 0
BITMAP
3600
3F00
7300
6300
6300
6300
6300
E600
C600
C600
ENDCHAR
STARTCHAR o.uni006F
ENCODING 111
SWIDTH 557 0
DWIDTH 10 0
BBX 8 10 1 0
BITMAP
1E00
3F00
6300
6300
C300
C300
C600
C600
FC00
7800
ENDCHAR
STARTCHAR p.uni0070
ENCODING 112
SWIDTH 557 0
DWIDTH 10 0
BBX 9 14 0 -4
BITMAP
1B00
1F80
3980
3180
3180
3180
3380
7300
7F00
6C00
6000
6000
C000
C000
ENDCHAR
STARTCHAR q.uni0071
ENCODING 113
SWIDTH 557 0
DWIDTH 10 0
BBX 9 14 1 -4
BITMAP
1D80
3D80
6300
6300
C300
C300
C300
C600
FE00
7600
0600
0E00
0C00
0C00
ENDCHAR
STARTCHAR r.uni0072
ENCODING 114
SWIDTH 557 0
DWIDTH 10 0
BBX 8 10 2 0
BITMAP
3700
3F00
7900
7000
6000
6000
6000
E000
C000
C000
ENDCHAR
STARTCHAR s.uni0073
ENCODING 115
SWIDTH 557 0
DWIDTH 10 0
BBX 9 10 0 0
BITMAP
0F00
3F80
3100
3800
1E00
0700
0300
8700
FE00
7C00
ENDCHAR
STARTCHAR t.uni0074
ENCODING 116
SWIDTH 557 0
DWIDTH 10 0
BBX 7 13 2 0
BITMAP
1800
1800
3000
FE00
FE00
3000
3000
3000
6000
6000
6000
7C00
3C00
ENDCHAR
STARTCHAR u.uni0075
ENCODING 117
SWIDTH 557 0
DWIDTH 10 0
BBX 8 10 1 0
BITMAP
6300
6300
6700
C600
C600
C600
C600
CE00
FC00
6C00
ENDCHAR
STARTCHAR v.uni0076
ENCODING 118
SWIDTH 557 0
DWIDTH 10 0
BBX 9 10 2 0
BITMAP
C380
C300
C700
6600
6E00
6C00
7C00
7800
7000
7000
ENDCHAR
STARTCHAR w.uni0077
ENCODING 119
SWIDTH 557 0
DWIDTH 10 0
BBX 10 10 1 0
BITMAP
C0C0
C180
C180
C900
DB00
DA00
FA00
EE00
EC00
CC00
ENDCHAR
STARTCHAR x.uni0078
ENCODING 120
SWIDTH 557 0
DWIDTH 10 0
BBX 11 10 -1 0
BITMAP
18E0
1DC0
0F80
0F00
0600
0E00
1F00
3B00
7380
E180
ENDCHAR
STARTCHAR y.uni0079
ENCODING 121
SWIDTH 557 0
DWIDTH 10 0
BBX 11 14 0 -4
BITMAP
30E0
30C0
31C0
3180
3B00
1F00
1E00
1E00
1C00
1800
1800
3000
F000
E000
ENDCHAR
STARTCHAR z.uni007A
ENCODING 122
SWIDTH 557 0
DWIDTH 10 0
BBX 9 10 1 0
BITMAP
3F80
3F80
0700
0E00
1C00
1800
3000
7000
FE00
FE00
ENDCHAR
STARTCHAR braceleft.uni007B
ENCODING 123
SWIDTH 557 0
DWIDTH 10 0
BBX 9 16 1 -2
BITMAP
0780
0700
0C00
0C00
0C00
0C00
1800
7800
F000
3800
1800
3800
3000
3000
3C00
1C00
ENDCHAR
STARTCHAR bar.uni007C
ENCODING 124
SWIDTH 557 0
DWIDTH 10 0
BBX 1 18 4 -4
BITMAP
8000
8000
8000
8000
8000
8000
8000
8000
8000
8000
8000
8000
8000
8000
8000
8000
8000
8000
ENDCHAR
STARTCHAR braceright.uni007D
ENCODING 125
SWIDTH 557 0
DWIDTH 10 0
BBX 8 16 0 -2
BITMAP
1800
1C00
0C00
0C00
0C00
1800
1C00
0F00
0E00
1800
1800
3000
3000
3000
F000
E000
ENDCHAR
STARTCHAR asciitilde.uni007E
ENCODING 126
SWIDTH 557 0
DWIDTH 10 0
BBX 9 3 1 4
BITMAP
7880
FF80
8700
ENDCHAR
STARTCHAR nbsp.uni00A0
ENCODING 160
SWIDTH 557 0
DWIDTH 10 0
BBX 0 0 0 0
BITMAP
ENDCHAR
STARTCHAR exclamdown.uni00A1
ENCODING 161
SWIDTH 557 0
DWIDTH 10 0
BBX 4 13 3 0
BITMAP
3000
3000
0000
0000
2000
6000
6000
6000
6000
6000
C000
C000
C000
ENDCHAR
STARTCHAR cent.uni00A2
ENCODING 162
SWIDTH 557 0
DWIDTH 10 0
BBX 8 16 1 -3
BITMAP
0200
0200
0400
1F00
3F00
7500
6400
C400
C800
C800
EA00
7E00
3C00
1000
1000
1000
ENDCHAR
STARTCHAR sterling.uni00A3
ENCODING 163
SWIDTH 557 0
DWIDTH 10 0
BBX 10 13 0 0
BITMAP
0380
07C0
0C40
0C00
1800
1800
7F00
7F00
1800
3000
3000
FF00
FF00
ENDCHAR
STARTCHAR currency.uni00A4
ENCODING 164
SWIDTH 557 0
DWIDTH 10 0
BBX 8 8 2 2
BITMAP
8100
7E00
6600
4200
4200
6600
7E00
8100
ENDCHAR
STARTCHAR yen.uni00A5
ENCODING 165
SWIDTH 557 0
DWIDTH 10 0
BBX 9 13 1 0
BITMAP
6180
6380
6300
3600
3E00
FF00
1800
1800
FF00
1800
3000
3000
3000
ENDCHAR
STARTCHAR brokenbar.uni00A6
ENCODING 166
SWIDTH 557 0
DWIDTH 10 0
BBX 1 16 4 -3
BITMAP
8000
8000
8000
8000
8000
8000
8000
0000
0000
8000
8000
8000
8000
8000
8000
8000
ENDCHAR
STARTCHAR section.uni00A7
ENCODING 167
SWIDTH 557 0
DWIDTH 10 0
BBX 8 15 1 -2
BITMAP
0F00
3F00
3000
3000
1C00
3E00
6700
6300
7300
3E00
0C00
0600
0600
7C00
F800
ENDCHAR
STARTCHAR dieresis.uni00A8
ENCODING 168
SWIDTH 557 0
DWIDTH 10 0
BBX 5 2 4 12
BITMAP
D800
D800
ENDCHAR
STARTCHAR copyright.uni00A9
ENCODING 169
SWIDTH 557 0
DWIDTH 10 0
BBX 10 11 0 1
BITMAP
1E00
2100
5E80
B040
A040
A040
A040
B040
5E80
2100
1E00
ENDCHAR
STARTCHAR ordfeminine.uni00AA
ENCODING 170
SWIDTH 557 0
DWIDTH 10 0
BBX 6 9 2 4
BITMAP
7800
0400
7C00
C400
8C00
8C00
7800
0000
F800
ENDCHAR
STARTCHAR guillemotleft.uni00AB
ENCODING 171
SWIDTH 557 0
DWIDTH 10 0
BBX 9 8 1 1
BITMAP
0880
1980
3300
CC00
CC00
6600
3300
1100
ENDCHAR
STARTCHAR logicalnot.uni00AC
ENCODING 172
SWIDTH 557 0
DWIDTH 10 0
BBX 9 4 1 4
BITMAP
FF80
FF80
0180
0180
ENDCHAR
STARTCHAR hyphensoft.uni00AD
ENCODING 173
SWIDTH 557 0
DWIDTH 10 0
BBX 5 1 3 5
BITMAP
F800
ENDCHAR
STARTCHAR registered.uni00AE
ENCODING 174
SWIDTH 557 0
DWIDTH 10 0
BBX 10 11 0 1
BITMAP
1E00
2100
5C80
9240
9240
9C40
9440
9240
5380
2100
1E00
ENDCHAR
STARTCHAR macron.uni00AF
ENCODING 175
SWIDTH 557 0
DWIDTH 10 0
BBX 5 1 4 12
BITMAP
F800
ENDCHAR
STARTCHAR degree.uni00B0
ENCODING 176
SWIDTH 557 0
DWIDTH 10 0
BBX 5 6 2 7
BITMAP
7000
D800
8800
8800
9800
7000
ENDCHAR
STARTCHAR plusminus.uni00B1
ENCODING 177
SWIDTH 557 0
DWIDTH 10 0
BBX 10 10 0 0
BITMAP
0C00
0C00
0C00
FFC0
FFC0
0C00
0C00
0C00
FFC0
FFC0
ENDCHAR
STARTCHAR twosuperior.uni00B2
ENCODING 178
SWIDTH 557 0
DWIDTH 10 0
BBX 6 7 3 6
BITMAP
3800
4400
0400
0800
1000
6000
F800
ENDCHAR
STARTCHAR threesuperior.uni00B3
ENCODING 179
SWIDTH 557 0
DWIDTH 10 0
BBX 6 7 2 6
BITMAP
3C00
0400
3800
0800
0800
0800
F000
ENDCHAR
STARTCHAR acute.uni00B4
ENCODING 180
SWIDTH 557 0
DWIDTH 10 0
BBX 3 3 6 11
BITMAP
2000
4000
8000
ENDCHAR
STARTCHAR micro.uni00B5
ENCODING 181
SWIDTH 557 0
DWIDTH 10 0
BBX 9 14 0 -4
BITMAP
3180
3180
3180
7180
6180
6300
6300
6700
7F80
7980
E000
C000
C000
C000
ENDCHAR
STARTCHAR paragraph.uni00B6
ENCODING 182
SWIDTH 557 0
DWIDTH 10 0
BBX 9 15 1 -2
BITMAP
1F80
7C80
FC80
F980
F900
F900
7900
0900
1300
1200
1200
1200
3200
2400
2400
ENDCHAR
STARTCHAR periodcentered.uni00B7
ENCODING 183
SWIDTH 557 0
DWIDTH 10 0
BBX 2 3 4 5
BITMAP
C000
C000
C000
ENDCHAR
STARTCHAR cedilla.uni00B8
ENCODING 184
SWIDTH 557 0
DWIDTH 10 0
BBX 4 3 2 -3
BITMAP
1000
1000
E000
ENDCHAR
STARTCHAR onesuperior.uni00B9
ENCODING 185
SWIDTH 557 0
DWIDTH 10 0
BBX 5 7 3 6
BITMAP
7000
1000
1000
3000
2000
2000
F800
ENDCHAR
STARTCHAR ordmasculine.uni00BA
ENCODING 186
SWIDTH 557 0
DWIDTH 10 0
BBX 7 9 2 4
BITMAP
1C00
2200
4200
4200
4200
4400
3800
0000
FC00
ENDCHAR
STARTCHAR guillemotright.uni00BB
ENCODING 187
SWIDTH 557 0
DWIDTH 10 0
BBX 9 8 1 1
BITMAP
4400
6600
3300
1980
1980
6600
CC00
8800
ENDCHAR
STARTCHAR onequarter.uni00BC
ENCODING 188
SWIDTH 557 0
DWIDTH 10 0
BBX 9 16 0 -2
BITMAP
3800
0800
0800
1800
1000
1000
7D80
3E00
C000
0300
0700
0500
0A00
1F00
0200
0200
ENDCHAR
STARTCHAR onehalf.uni00BD
ENCODING 189
SWIDTH 557 0
DWIDTH 10 0
BBX 10 16 0 -2
BITMAP
3800
0800
0800
1800
1000
1000
7D80
3E00
C000
0380
0440
0040
0080
0100
0600
0F80
ENDCHAR
STARTCHAR threequarters.uni00BE
ENCODING 190
SWIDTH 557 0
DWIDTH 10 0
BBX 9 16 0 -2
BITMAP
3C00
0400
3800
0800
0800
0800
F180
3E00
C000
0300
0700
0500
0A00
1F00
0200
0200
ENDCHAR
STARTCHAR questiondown.uni00BF
ENCODING 191
SWIDTH 557 0
DWIDTH 10 0
BBX 7 13 1 0
BITMAP
0600
0600
0000
0600
0C00
0C00
1800
3000
6000
C000
C200
FE00
7C00
ENDCHAR
STARTCHAR Agrave.uni00C0
ENCODING 192
SWIDTH 557 0
DWIDTH 10 0
BBX 10 16 -1 0
BITMAP
0600
0300
0000
0380
0380
0780
0780
0D80
0D80
1980
1980
3FC0
3FC0
60C0
60C0
C0C0
ENDCHAR
STARTCHAR Aacute.uni00C1
ENCODING 193
SWIDTH 557 0
DWIDTH 10 0
BBX 10 16 -1 0
BITMAP
0080
0100
0000
0380
0380
0780
0780
0D80
0D80
1980
1980
3FC0
3FC0
60C0
60C0
C0C0
ENDCHAR
STARTCHAR Acircumflex.uni00C2
ENCODING 194
SWIDTH 557 0
DWIDTH 10 0
BBX 10 16 -1 0
BITMAP
0300
0480
0000
0380
0380
0780
0780
0D80
0D80
1980
1980
3FC0
3FC0
60C0
60C0
C0C0
ENDCHAR
STARTCHAR Atilde.uni00C3
ENCODING 195
SWIDTH 557 0
DWIDTH 10 0
BBX 10 16 -1 0
BITMAP
0640
0980
0000
0380
0380
0780
0780
0D80
0D80
1980
1980
3FC0
3FC0
60C0
60C0
C0C0
ENDCHAR
STARTCHAR Adieresis.uni00C4
ENCODING 196
SWIDTH 557 0
DWIDTH 10 0
BBX 10 16 -1 0
BITMAP
06C0
06C0
0000
0380
0380
0780
0780
0D80
0D80
1980
1980
3FC0
3FC0
60C0
60C0
C0C0
ENDCHAR
STARTCHAR Aring.uni00C5
ENCODING 197
SWIDTH 557 0
DWIDTH 10 0
BBX 10 17 -1 0
BITMAP
0380
0440
0440
0440
0380
0780
0780
0F80
0D80
0D80
1980
1980
3FC0
3FC0
60C0
60C0
C0C0
ENDCHAR
STARTCHAR AE.uni00C6
ENCODING 198
SWIDTH 557 0
DWIDTH 10 0
BBX 12 13 -1 0
BITMAP
07F0
07F0
0780
0D80
0D80
19E0
1BE0
3B00
3F00
3F00
6300
67C0
C7C0
ENDCHAR
STARTCHAR Ccedilla.uni00C7
ENCODING 199
SWIDTH 557 0
DWIDTH 10 0
BBX 9 16 1 -3
BITMAP
0F00
1F80
3880
7000
6000
E000
C000
C000
C000
C000
E200
7E00
3C00
0400
0400
3800
ENDCHAR
STARTCHAR Egrave.uni00C8
ENCODING 200
SWIDTH 557 0
DWIDTH 10 0
BBX 10 16 0 0
BITMAP
0600
0300
0000
3FC0
3FC0
3000
6000
6000
7F80
7F00
6000
6000
6000
C000
FF00
FF00
ENDCHAR
STARTCHAR Eacute.uni00C9
ENCODING 201
SWIDTH 557 0
DWIDTH 10 0
BBX 10 16 0 0
BITMAP
0080
0100
0000
3FC0
3FC0
3000
6000
6000
7F80
7F00
6000
6000
6000
C000
FF00
FF00
ENDCHAR
STARTCHAR Ecircumflex.uni00CA
ENCODING 202
SWIDTH 557 0
DWIDTH 10 0
BBX 10 16 0 0
BITMAP
0300
0480
0000
3FC0
3FC0
3000
6000
6000
7F80
7F00
6000
6000
6000
C000
FF00
FF00
ENDCHAR
STARTCHAR Edieresis.uni00CB
ENCODING 203
SWIDTH 557 0
DWIDTH 10 0
BBX 10 16 0 0
BITMAP
06C0
06C0
0000
3FC0
3FC0
3000
6000
6000
7F80
7F00
6000
6000
6000
C000
FF00
FF00
ENDCHAR
STARTCHAR Igrave.uni00CC
ENCODING 204
SWIDTH 557 0
DWIDTH 10 0
BBX 9 16 0 0
BITMAP
0C00
0600
0000
3F80
3F80
0E00
0C00
0C00
0C00
0C00
1C00
1800
1800
1800
FE00
FE00
ENDCHAR
STARTCHAR Iacute.uni00CD
ENCODING 205
SWIDTH 557 0
DWIDTH 10 0
BBX 9 16 0 0
BITMAP
0100
0200
0000
3F80
3F80
0E00
0C00
0C00
0C00
0C00
1C00
1800
1800
1800
FE00
FE00
ENDCHAR
STARTCHAR Icircumflex.uni00CE
ENCODING 206
SWIDTH 557 0
DWIDTH 10 0
BBX 9 16 0 0
BITMAP
0600
0900
0000
3F80
3F80
0E00
0C00
0C00
0C00
0C00
1C00
1800
1800
1800
FE00
FE00
ENDCHAR
STARTCHAR Idieresis.uni00CF
ENCODING 207
SWIDTH 557 0
DWIDTH 10 0
BBX 9 16 0 0
BITMAP
0D80
0D80
0000
3F80
3F80
0E00
0C00
0C00
0C00
0C00
1C00
1800
1800
1800
FE00
FE00
ENDCHAR
STARTCHAR Eth.uni00D0
ENCODING 208
SWIDTH 557 0
DWIDTH 10 0
BBX 9 13 0 0
BITMAP
3E00
3F00
3380
6180
6180
F980
F980
6180
6300
6300
C600
FE00
F800
ENDCHAR
STARTCHAR Ntilde.uni00D1
ENCODING 209
SWIDTH 557 0
DWIDTH 10 0
BBX 10 16 0 0
BITMAP
0C80
1300
0000
30C0
30C0
30C0
6980
6980
6980
6D80
6D80
6D80
6580
C700
C700
C700
ENDCHAR
STARTCHAR Ograve.uni00D2
ENCODING 210
SWIDTH 557 0
DWIDTH 10 0
BBX 9 16 1 0
BITMAP
1800
0C00
0000
0F00
3F00
3180
6180
6180
C180
C180
C180
C300
C300
C600
7E00
7800
ENDCHAR
STARTCHAR Oacute.uni00D3
ENCODING 211
SWIDTH 557 0
DWIDTH 10 0
BBX 9 16 1 0
BITMAP
0200
0400
0000
0F00
3F00
3180
6180
6180
C180
C180
C180
C300
C300
C600
7E00
7800
ENDCHAR
STARTCHAR Ocircumflex.uni00D4
ENCODING 212
SWIDTH 557 0
DWIDTH 10 0
BBX 9 16 1 0
BITMAP
0C00
1200
0000
0F00
3F00
3180
6180
6180
C180
C180
C180
C300
C300
C600
7E00
7800
ENDCHAR
STARTCHAR Otilde.uni00D5
ENCODING 213
SWIDTH 557 0
DWIDTH 10 0
BBX 9 16 1 0
BITMAP
1900
2600
0000
0F00
3F00
3180
6180
6180
C180
C180
C180
C300
C300
C600
7E00
7800
ENDCHAR
STARTCHAR Odieresis.uni00D6
ENCODING 214
SWIDTH 557 0
DWIDTH 10 0
BBX 9 16 1 0
BITMAP
1B00
1B00
0000
0F00
3F00
3180
6180
6180
C180
C180
C180
C300
C300
C600
7E00
7800
ENDCHAR
STARTCHAR multiply.uni00D7
ENCODING 215
SWIDTH 557 0
DWIDTH 10 0
BBX 8 8 1 2
BITMAP
4200
E700
7E00
3C00
3C00
7E00
E700
4200
ENDCHAR
STARTCHAR Oslash.uni00D8
ENCODING 216
SWIDTH 557 0
DWIDTH 10 0
BBX 10 13 0 0
BITMAP
0F40
1FC0
38C0
31C0
32C0
72C0
64C0
68C0
7980
7180
6300
7F00
DE00
ENDCHAR
STARTCHAR Ugrave.uni00D9
ENCODING 217
SWIDTH 557 0
DWIDTH 10 0
BBX 10 16 1 0
BITMAP
1800
0C00
0000
30C0
30C0
3180
6180
6180
6180
6180
C300
C300
C300
C700
FE00
7C00
ENDCHAR
STARTCHAR Uacute.uni00DA
ENCODING 218
SWIDTH 557 0
DWIDTH 10 0
BBX 10 16 1 0
BITMAP
0200
0400
0000
30C0
30C0
3180
6180
6180
6180
6180
C300
C300
C300
C700
FE00
7C00
ENDCHAR
STARTCHAR Ucircumflex.uni00DB
ENCODING 219
SWIDTH 557 0
DWIDTH 10 0
BBX 10 16 1 0
BITMAP
0C00
1200
0000
30C0
30C0
3180
6180
6180
6180
6180
C300
C300
C300
C700
FE00
7C00
ENDCHAR
STARTCHAR Udieresis.uni00DC
ENCODING 220
SWIDTH 557 0
DWIDTH 10 0
BBX 10 16 1 0
BITMAP
1B00
1B00
0000
30C0
30C0
3180
6180
6180
6180
6180
C300
C300
C300
C700
FE00
7C00
ENDCHAR
STARTCHAR Yacute.uni00DD
ENCODING 221
SWIDTH 557 0
DWIDTH 10 0
BBX 10 16 1 0
BITMAP
0200
0400
0000
C1C0
6380
6300
7600
3E00
3C00
1800
1800
1800
1800
3000
3000
3000
ENDCHAR
STARTCHAR Thorn.uni00DE
ENCODING 222
SWIDTH 557 0
DWIDTH 10 0
BBX 9 13 0 0
BITMAP
3000
3000
3F00
7F80
6180
6180
6380
7F00
7E00
6000
C000
C000
C000
ENDCHAR
STARTCHAR germandbls.uni00DF
ENCODING 223
SWIDTH 557 0
DWIDTH 10 0
BBX 9 14 0 0
BITMAP
0F00
1F80
3180
3180
3700
7C00
6E00
6700
6380
6180
6180
E380
FF00
DE00
ENDCHAR
STARTCHAR agrave.uni00E0
ENCODING 224
SWIDTH 557 0
DWIDTH 10 0
BBX 8 14 1 0
BITMAP
1800
0800
0400
0000
1E00
3F00
2300
0300
3F00
7F00
C600
C600
FE00
7C00
ENDCHAR
STARTCHAR aacute.uni00E1
ENCODING 225
SWIDTH 557 0
DWIDTH 10 0
BBX 8 14 1 0
BITMAP
0100
0200
0400
0000
1E00
3F00
2300
0300
3F00
7F00
C600
C600
FE00
7C00
ENDCHAR
STARTCHAR acircumflex.uni00E2
ENCODING 226
SWIDTH 557 0
DWIDTH 10 0
BBX 8 14 1 0
BITMAP
0C00
1C00
3200
0000
1E00
3F00
2300
0300
3F00
7F00
C600
C600
FE00
7C00
ENDCHAR
STARTCHAR atilde.uni00E3
ENCODING 227
SWIDTH 557 0
DWIDTH 10 0
BBX 8 14 1 0
BITMAP
1900
2600
0000
0000
1E00
3F00
2300
0300
3F00
7F00
C600
C600
FE00
7C00
ENDCHAR
STARTCHAR adieresis.uni00E4
ENCODING 228
SWIDTH 557 0
DWIDTH 10 0
BBX 8 14 1 0
BITMAP
1B00
1B00
0000
0000
1E00
3F00
2300
0300
3F00
7F00
C600
C600
FE00
7C00
ENDCHAR
STARTCHAR aring.uni00E5
ENCODING 229
SWIDTH 557 0
DWIDTH 10 0
BBX 8 16 1 0
BITMAP
0E00
1100
1100
1100
0E00
0000
1E00
3F00
2300
0300
3F00
7F00
C600
C600
FE00
7C00
ENDCHAR
STARTCHAR ae.uni00E6
ENCODING 230
SWIDTH 557 0
DWIDTH 10 0
BBX 10 10 0 0
BITMAP
1980
3FC0
2EC0
0CC0
3FC0
7FC0
CC00
DC80
FF80
7300
ENDCHAR
STARTCHAR ccedilla.uni00E7
ENCODING 231
SWIDTH 557 0
DWIDTH 10 0
BBX 8 13 1 -3
BITMAP
1E00
3F00
7100
6000
C000
C000
C000
E200
7E00
3C00
0400
0400
3800
ENDCHAR
STARTCHAR egrave.uni00E8
ENCODING 232
SWIDTH 557 0
DWIDTH 10 0
BBX 9 14 1 0
BITMAP
1800
0800
0400
0000
1E00
3F00
7180
6180
FF80
FF80
C000
C200
7E00
3C00
ENDCHAR
STARTCHAR eacute.uni00E9
ENCODING 233
SWIDTH 557 0
DWIDTH 10 0
BBX 9 14 1 0
BITMAP
0100
0200
0400
0000
1E00
3F00
7180
6180
FF80
FF80
C000
C200
7E00
3C00
ENDCHAR
STARTCHAR ecircumflex.uni00EA
ENCODING 234
SWIDTH 557 0
DWIDTH 10 0
BBX 9 14 1 0
BITMAP
0C00
1C00
3200
0000
1E00
3F00
7180
6180
FF80
FF80
C000
C200
7E00
3C00
ENDCHAR
STARTCHAR edieresis.uni00EB
ENCODING 235
SWIDTH 557 0
DWIDTH 10 0
BBX 9 14 1 0
BITMAP
1B00
1B00
0000
0000
1E00
3F00
7180
6180
FF80
FF80
C000
C200
7E00
3C00
ENDCHAR
STARTCHAR igrave.uni00EC
ENCODING 236
SWIDTH 557 0
DWIDTH 10 0
BBX 7 14 1 0
BITMAP
1800
0800
0400
0000
3C00
3C00
1800
1800
1800
1800
3000
3000
FE00
FE00
ENDCHAR
STARTCHAR iacute.uni00ED
ENCODING 237
SWIDTH 557 0
DWIDTH 10 0
BBX 8 14 1 0
BITMAP
0100
0200
0400
0000
3C00
3C00
1800
1800
1800
1800
3000
3000
FE00
FE00
ENDCHAR
STARTCHAR icircumflex.uni00EE
ENCODING 238
SWIDTH 557 0
DWIDTH 10 0
BBX 7 14 1 0
BITMAP
0C00
1C00
3200
0000
3C00
3C00
1800
1800
1800
1800
3000
3000
FE00
FE00
ENDCHAR
STARTCHAR idieresis.uni00EF
ENCODING 239
SWIDTH 557 0
DWIDTH 10 0
BBX 8 14 1 0
BITMAP
1B00
1B00
0000
0000
3C00
3C00
1800
1800
1800
1800
3000
3000
FE00
FE00
ENDCHAR
STARTCHAR eth.uni00F0
ENCODING 240
SWIDTH 557 0
DWIDTH 10 0
BBX 8 14 1 0
BITMAP
1800
1F00
3C00
0E00
1E00
3F00
6300
E300
C300
C300
C600
C600
FC00
7800
ENDCHAR
STARTCHAR ntilde.uni00F1
ENCODING 241
SWIDTH 557 0
DWIDTH 10 0
BBX 8 14 1 0
BITMAP
1900
2600
0000
0000
3600
3F00
7300
6300
6300
6300
6300
E600
C600
C600
ENDCHAR
STARTCHAR ograve.uni00F2
ENCODING 242
SWIDTH 557 0
DWIDTH 10 0
BBX 8 14 1 0
BITMAP
1800
0800
0400
0000
1E00
3F00
6300
6300
C300
C300
C600
C600
FC00
7800
ENDCHAR
STARTCHAR oacute.uni00F3
ENCODING 243
SWIDTH 557 0
DWIDTH 10 0
BBX 8 14 1 0
BITMAP
0100
0200
0400
0000
1E00
3F00
6300
6300
C300
C300
C600
C600
FC00
7800
ENDCHAR
STARTCHAR ocircumflex.uni00F4
ENCODING 244
SWIDTH 557 0
DWIDTH 10 0
BBX 8 14 1 0
BITMAP
0C00
1C00
3200
0000
1E00
3F00
6300
6300
C300
C300
C600
C600
FC00
7800
ENDCHAR
STARTCHAR otilde.uni00F5
ENCODING 245
SWIDTH 557 0
DWIDTH 10 0
BBX 8 14 1 0
BITMAP
1900
2600
0000
0000
1E00
3F00
6300
6300
C300
C300
C600
C600
FC00
7800
ENDCHAR
STARTCHAR odieresis.uni00F6
ENCODING 246
SWIDTH 557 0
DWIDTH 10 0
BBX 8 14 1 0
BITMAP
1B00
1B00
0000
0000
1E00
3F00
6300
6300
C300
C300
C600
C600
FC00
7800
ENDCHAR
STARTCHAR divide.uni00F7
ENCODING 247
SWIDTH 557 0
DWIDTH 10 0
BBX 8 8 1 2
BITMAP
1800
1800
0000
FF00
FF00
0000
1800
1800
ENDCHAR
STARTCHAR oslash.uni00F8
ENCODING 248
SWIDTH 557 0
DWIDTH 10 0
BBX 8 10 1 0
BITMAP
1D00
7F00
6700
E700
CB00
D300
E700
C600
FE00
B800
ENDCHAR
STARTCHAR ugrave.uni00F9
ENCODING 249
SWIDTH 557 0
DWIDTH 10 0
BBX 8 14 1 0
BITMAP
1800
0800
0400
0000
6300
6300
6700
C600
C600
C600
C600
CE00
FC00
6C00
ENDCHAR
STARTCHAR uacute.uni00FA
ENCODING 250
SWIDTH 557 0
DWIDTH 10 0
BBX 8 14 1 0
BITMAP
0100
0200
0400
0000
6300
6300
6700
C600
C600
C600
C600
CE00
FC00
6C00
ENDCHAR
STARTCHAR ucircumflex.uni00FB
ENCODING 251
SWIDTH 557 0
DWIDTH 10 0
BBX 8 14 1 0
BITMAP
0C00
1C00
3200
0000
6300
6300
6700
C600
C600
C600
C600
CE00
FC00
6C00
ENDCHAR
STARTCHAR udieresis.uni00FC
ENCODING 252
SWIDTH 557 0
DWIDTH 10 0
BBX 8 14 1 0
BITMAP
1B00
1B00
0000
0000
6300
6300
6700
C600
C600
C600
C600
CE00
FC00
6C00
ENDCHAR
STARTCHAR yacute.uni00FD
ENCODING 253
SWIDTH 557 0
DWIDTH 10 0
BBX 11 18 0 -4
BITMAP
0080
0100
0200
0000
30E0
30C0
31C0
3180
3B00
1F00
1E00
1E00
1C00
1800
1800
3000
F000
E000
ENDCHAR
STARTCHAR thorn.uni00FE
ENCODING 254
SWIDTH 557 0
DWIDTH 10 0
BBX 9 18 0 -4
BITMAP
1800
1800
1800
3000
3700
3F80
3180
3180
3180
6180
6300
6700
7E00
6C00
6000
C000
C000
C000
ENDCHAR
STARTCHAR ydieresis.uni00FF
ENCODING 255
SWIDTH 557 0
DWIDTH 10 0
BBX 11 18 0 -4
BITMAP
0D80
0D80
0000
0000
30E0
30C0
31C0
3180
3B00
1F00
1E00
1E00
1C00
1800
1800
3000
F000
E000
ENDCHAR
STARTCHAR Cacute.uni0106
ENCODING 262
SWIDTH 557 0
DWIDTH 10 0
BBX 9 16 1 0
BITMAP
0100
0200
0000
0F00
1F80
3880
7000
6000
E000
C000
C000
C000
C000
E200
7E00
3C00
ENDCHAR
STARTCHAR cacute.uni0107
ENCODING 263
SWIDTH 557 0
DWIDTH 10 0
BBX 9 14 1 0
BITMAP
0080
0100
0200
0000
1E00
3F00
7100
6000
C000
C000
C000
E200
7E00
3C00
ENDCHAR
STARTCHAR Ccaron.uni010C
ENCODING 268
SWIDTH 557 0
DWIDTH 10 0
BBX 9 16 1 0
BITMAP
0900
0600
0000
0F00
1F80
3880
7000
6000
E000
C000
C000
C000
C000
E200
7E00
3C00
ENDCHAR
STARTCHAR ccaron.uni010D
ENCODING 269
SWIDTH 557 0
DWIDTH 10 0
BBX 9 14 1 0
BITMAP
0980
0700
0600
0000
1E00
3F00
7100
6000
C000
C000
C000
E200
7E00
3C00
ENDCHAR
STARTCHAR dcroat.uni0111
ENCODING 273
SWIDTH 557 0
DWIDTH 10 0
BBX 11 14 1 0
BITMAP
00C0
0180
0FE0
0180
1980
3D80
6300
6300
C300
C300
C300
C600
FE00
7600
ENDCHAR
STARTCHAR Gbreve.uni011E
ENCODING 286
SWIDTH 557 0
DWIDTH 10 0
BBX 9 16 1 0
BITMAP
1100
0E00
0000
0F00
1F80
3080
6000
6000
E700
C700
C300
C600
C600
E600
7E00
3C00
ENDCHAR
STARTCHAR gbreve.uni011F
ENCODING 287
SWIDTH 557 0
DWIDTH 10 0
BBX 9 18 1 -4
BITMAP
1100
1300
0E00
0000
1D80
3D80
7380
6300
C300
C300
C300
C700
FE00
7600
0600
8E00
FC00
7800
ENDCHAR
STARTCHAR Idotaccent.uni0130
ENCODING 304
SWIDTH 557 0
DWIDTH 10 0
BBX 9 16 0 0
BITMAP
0600
0600
0000
3F80
3F80
0E00
0C00
0C00
0C00
0C00
1C00
1800
1800
1800
FE00
FE00
ENDCHAR
STARTCHAR dotlessi.uni0131
ENCODING 305
SWIDTH 557 0
DWIDTH 10 0
BBX 7 10 1 0
BITMAP
3C00
3C00
1800
1800
1800
1800
3000
3000
FE00
FE00
ENDCHAR
STARTCHAR Lslash.uni0141
ENCODING 321
SWIDTH 557 0
DWIDTH 10 0
BBX 9 13 0 0
BITMAP
1800
1800
1800
3200
3C00
3800
3000
F000
B000
3000
6000
7F80
7F80
ENDCHAR
STARTCHAR lslash.uni0142
ENCODING 322
SWIDTH 557 0
DWIDTH 10 0
BBX 8 14 1 0
BITMAP
3C00
7C00
0C00
0C00
1B00
1C00
1800
7800
F800
3000
3000
3000
3E00
1E00
ENDCHAR
STARTCHAR OE.uni0152
ENCODING 338
SWIDTH 557 0
DWIDTH 10 0
BBX 11 13 0 0
BITMAP
0FE0
3FE0
3300
6300
6300
63C0
C3C0
C600
C600
C600
C600
FF80
3F80
ENDCHAR
STARTCHAR oe.uni0153
ENCODING 339
SWIDTH 557 0
DWIDTH 10 0
BBX 11 10 0 0
BITMAP
3DC0
7FE0
6760
6660
C7E0
C7C0
C600
CE00
FF80
7300
ENDCHAR
STARTCHAR Scedilla.uni015E
ENCODING 350
SWIDTH 557 0
DWIDTH 10 0
BBX 10 16 0 -3
BITMAP
0F80
1FC0
3840
3000
3000
3E00
0F00
0380
0180
0180
8380
FF00
7C00
0400
0400
3800
ENDCHAR
STARTCHAR scedilla.uni015F
ENCODING 351
SWIDTH 557 0
DWIDTH 10 0
BBX 9 13 0 -3
BITMAP
0F00
3F80
3100
3800
1E00
0700
0300
8700
FE00
7C00
0400
0400
3800
ENDCHAR
STARTCHAR Scaron.uni0160
ENCODING 352
SWIDTH 557 0
DWIDTH 10 0
BBX 10 16 0 0
BITMAP
0900
0600
0000
0F80
1FC0
3840
3000
3000
3E00
0F00
0380
0180
0180
8380
FF00
7C00
ENDCHAR
STARTCHAR scaron.uni0161
ENCODING 353
SWIDTH 557 0
DWIDTH 10 0
BBX 9 14 0 0
BITMAP
0980
0700
0600
0000
0F00
3F80
3100
3800
1E00
0700
0300
8700
FE00
7C00
ENDCHAR
STARTCHAR Ydieresis.uni0178
ENCODING 376
SWIDTH 557 0
DWIDTH 10 0
BBX 10 16 1 0
BITMAP
1B00
1B00
0000
C1C0
6380
6300
7600
3E00
3C00
1800
1800
1800
1800
3000
3000
3000
ENDCHAR
STARTCHAR Zcaron.uni017D
ENCODING 381
SWIDTH 557 0
DWIDTH 10 0
BBX 11 16 0 0
BITMAP
0900
0600
0000
1FE0
3FE0
01C0
0180
0300
0700
0E00
1C00
1800
3800
7000
FF80
FF80
ENDCHAR
STARTCHAR zcaron.uni017E
ENCODING 382
SWIDTH 557 0
DWIDTH 10 0
BBX 9 14 1 0
BITMAP
1300
0E00
0C00
0000
3F80
3F80
0700
0E00
1C00
1800
3000
7000
FE00
FE00
ENDCHAR
STARTCHAR florin.uni0192
ENCODING 402
SWIDTH 557 0
DWIDTH 10 0
BBX 10 18 0 -4
BITMAP
01C0
03C0
0700
0600
0600
0600
0600
1F80
1F80
0600
0C00
0C00
0C00
0C00
0C00
1800
F800
F000
ENDCHAR
STARTCHAR circumflex.uni02C6
ENCODING 710
SWIDTH 557 0
DWIDTH 10 0
BBX 5 3 3 11
BITMAP
3000
7000
C800
ENDCHAR
STARTCHAR caron.uni02C7
ENCODING 711
SWIDTH 557 0
DWIDTH 10 0
BBX 5 3 4 11
BITMAP
9800
7000
6000
ENDCHAR
STARTCHAR breve.uni02D8
ENCODING 728
SWIDTH 557 0
DWIDTH 10 0
BBX 5 3 4 11
BITMAP
8800
9800
7000
ENDCHAR
STARTCHAR dotaccent.uni02D9
ENCODING 729
SWIDTH 557 0
DWIDTH 10 0
BBX 2 2 5 12
BITMAP
C000
C000
ENDCHAR
STARTCHAR ring.uni02DA
ENCODING 730
SWIDTH 557 0
DWIDTH 10 0
BBX 5 5 4 11
BITMAP
7000
8800
8800
8800
7000
ENDCHAR
STARTCHAR ogonek.uni02DB
ENCODING 731
SWIDTH 557 0
DWIDTH 10 0
BBX 3 3 2 -3
BITMAP
4000
8000
E000
ENDCHAR
STARTCHAR tilde.uni02DC
ENCODING 732
SWIDTH 557 0
DWIDTH 10 0
BBX 6 2 3 12
BITMAP
6400
9800
ENDCHAR
STARTCHAR hungarumlaut.uni02DD
ENCODING 733
SWIDTH 557 0
DWIDTH 10 0
BBX 7 3 4 11
BITMAP
3600
6C00
D800
ENDCHAR
STARTCHAR uni03A9.uni03A9
ENCODING 937
SWIDTH 557 0
DWIDTH 10 0
BBX 11 12 1 0
BITMAP
0780
1FC0
38C0
30E0
6060
6060
6060
60C0
2180
1100
F3C0
F3C0
ENDCHAR
STARTCHAR pi.uni03C0
ENCODING 960
SWIDTH 557 0
DWIDTH 10 0
BBX 10 10 2 0
BITMAP
FFC0
FFC0
6300
6300
6300
6300
C600
C600
C780
C380
ENDCHAR
STARTCHAR endash.uni2013
ENCODING 8211
SWIDTH 557 0
DWIDTH 10 0
BBX 6 2 2 4
BITMAP
FC00
FC00
ENDCHAR
STARTCHAR emdash.uni2014
ENCODING 8212
SWIDTH 557 0
DWIDTH 10 0
BBX 8 2 1 4
BITMAP
FF00
FF00
ENDCHAR
STARTCHAR quoteleft.uni2018
ENCODING 8216
SWIDTH 557 0
DWIDTH 10 0
BBX 3 5 4 9
BITMAP
2000
6000
C000
C000
C000
ENDCHAR
STARTCHAR quoteright.uni2019
ENCODING 8217
SWIDTH 557 0
DWIDTH 10 0
BBX 3 5 5 9
BITMAP
6000
6000
6000
C000
8000
ENDCHAR
STARTCHAR quotesinglbase.uni201A
ENCODING 8218
SWIDTH 557 0
DWIDTH 10 0
BBX 3 5 2 -2
BITMAP
6000
6000
6000
C000
8000
ENDCHAR
STARTCHAR quotedblleft.uni201C
ENCODING 8220
SWIDTH 557 0
DWIDTH 10 0
BBX 7 5 2 9
BITMAP
2200
6600
4C00
CC00
CC00
ENDCHAR
STARTCHAR quotedblright.uni201D
ENCODING 8221
SWIDTH 557 0
DWIDTH 10 0
BBX 7 5 3 9
BITMAP
6600
6600
6600
CC00
8800
ENDCHAR
STARTCHAR quotedblbase.uni201E
ENCODING 8222
SWIDTH 557 0
DWIDTH 10 0
BBX 7 5 1 -2
BITMAP
6600
6600
6600
CC00
8800
ENDCHAR
STARTCHAR dagger.uni2020
ENCODING 8224
SWIDTH 557 0
DWIDTH 10 0
BBX 8 15 2 -2
BITMAP
0C00
0C00
1800
1800
FF00
FF00
1800
1000
3000
3000
3000
3000
3000
6000
6000
ENDCHAR
STARTCHAR daggerdbl.uni2021
ENCODING 8225
SWIDTH 557 0
DWIDTH 10 0
BBX 9 15 1 -2
BITMAP
0600
0600
0C00
0C00
7F80
7F80
0C00
0800
1800
FF00
FE00
1800
3800
3000
3000
ENDCHAR
STARTCHAR bullet.uni2022
ENCODING 8226
SWIDTH 557 0
DWIDTH 10 0
BBX 5 5 3 4
BITMAP
7000
F800
F800
F800
7000
ENDCHAR
STARTCHAR ellipsis.uni2026
ENCODING 8230
SWIDTH 557 0
DWIDTH 10 0
BBX 9 3 -1 0
BITMAP
CD80
CD80
CD80
ENDCHAR
STARTCHAR perthousand.uni2030
ENCODING 8240
SWIDTH 557 0
DWIDTH 10 0
BBX 10 13 0 0
BITMAP
7000
8800
8800
88C0
7300
0C00
3000
C000
7380
8C40
8C40
8C40
7380
ENDCHAR
STARTCHAR guilsinglleft.uni2039
ENCODING 8249
SWIDTH 557 0
DWIDTH 10 0
BBX 5 8 3 1
BITMAP
0800
1800
3000
C000
C000
6000
3000
1000
ENDCHAR
STARTCHAR guilsinglright.uni203A
ENCODING 8250
SWIDTH 557 0
DWIDTH 10 0
BBX 5 8 3 1
BITMAP
4000
6000
3000
1800
1800
6000
C000
8000
ENDCHAR
STARTCHAR Euro.uni20AC
ENCODING 8364
SWIDTH 557 0
DWIDTH 10 0
BBX 10 13 0 0
BITMAP
0780
0FC0
1C40
3800
3000
FF00
6000
6000
FE00
6000
7100
3F00
1E00
ENDCHAR
STARTCHAR trademark.uni2122
ENCODING 8482
SWIDTH 557 0
DWIDTH 10 0
BBX 9 5 0 8
BITMAP
ED80
4D80
4A80
4880
4880
ENDCHAR
STARTCHAR partialdiff.uni2202
ENCODING 8706
SWIDTH 557 0
DWIDTH 10 0
BBX 7 12 2 0
BITMAP
1800
3400
0200
0200
0200
3A00
6600
C600
C600
C400
CC00
7800
ENDCHAR
STARTCHAR Delta.uni2206
ENCODING 8710
SWIDTH 557 0
DWIDTH 10 0
BBX 10 12 0 0
BITMAP
0C00
0C00
1E00
1E00
1E00
3300
3300
3300
6180
6180
7F80
FFC0
ENDCHAR
STARTCHAR Pi.uni03A0
ENCODING 928
SWIDTH 557 0
DWIDTH 10 0
BBX 10 13 1 0
BITMAP
3FC0
3FC0
30C0
6180
6180
6180
6180
6180
6180
6180
C300
C300
C300
ENDCHAR
STARTCHAR summation.uni2211
ENCODING 8721
SWIDTH 557 0
DWIDTH 10 0
BBX 8 17 1 -4
BITMAP
FF00
8000
4000
2000
2000
1000
0800
0400
0400
0400
0800
1000
2000
2000
4000
8000
FF00
ENDCHAR
STARTCHAR minus.uni2212
ENCODING 8722
SWIDTH 557 0
DWIDTH 10 0
BBX 8 2 1 5
BITMAP
FF00
FF00
ENDCHAR
STARTCHAR slashdiv.uni2215
ENCODING 8725
SWIDTH 557 0
DWIDTH 10 0
BBX 9 16 0 -2
BITMAP
0180
0180
0300
0300
0600
0600
0C00
0C00
1800
1800
3000
3000
6000
6000
C000
C000
ENDCHAR
STARTCHAR bulletop.uni2219
ENCODING 8729
SWIDTH 557 0
DWIDTH 10 0
BBX 2 3 4 5
BITMAP
C000
C000
C000
ENDCHAR
STARTCHAR radical.uni221A
ENCODING 8730
SWIDTH 557 0
DWIDTH 10 0
BBX 9 15 0 0
BITMAP
0080
0080
0080
0100
0100
0100
0200
E200
2200
2400
1400
1400
1800
0800
0800
ENDCHAR
STARTCHAR infinity.uni221E
ENCODING 8734
SWIDTH 557 0
DWIDTH 10 0
BBX 10 7 0 2
BITMAP
7380
DE40
8C40
8C40
8C40
9EC0
7380
ENDCHAR
STARTCHAR integral.uni222B
ENCODING 8747
SWIDTH 557 0
DWIDTH 10 0
BBX 8 17 1 -3
BITMAP
0700
0C00
0800
1800
1800
1800
1800
1800
1800
1800
1800
1800
1800
1800
1000
3000
E000
ENDCHAR
STARTCHAR approxequal.uni2248
ENCODING 8776
SWIDTH 557 0
DWIDTH 10 0
BBX 9 7 1 2
BITMAP
7880
FF80
8700
0000
7880
FF80
8700
ENDCHAR
STARTCHAR notequal.uni2260
ENCODING 8800
SWIDTH 557 0
DWIDTH 10 0
BBX 9 12 1 0
BITMAP
0100
0180
0300
FF80
FF80
0C00
1800
FF80
FF80
6000
C000
4000
ENDCHAR
STARTCHAR lessequal.uni2264
ENCODING 8804
SWIDTH 557 0
DWIDTH 10 0
BBX 9 10 1 0
BITMAP
0180
0F80
7C00
C000
7C00
0F80
0180
0000
FF80
FF80
ENDCHAR
STARTCHAR greaterequal.uni2265
ENCODING 8805
SWIDTH 557 0
DWIDTH 10 0
BBX 9 10 1 0
BITMAP
C000
F800
1F00
0180
1F00
F800
C000
0000
FF80
FF80
ENDCHAR
STARTCHAR fi.uniFB01
ENCODING 64257
SWIDTH 557 0
DWIDTH 10 0
BBX 10 14 1 0
BITMAP
0EC0
1EC0
3000
3000
FF80
FF80
3380
6300
6300
6300
6300
6700
C600
C600
ENDCHAR
STARTCHAR fl.uniFB02
ENCODING 64258
SWIDTH 557 0
DWIDTH 10 0
BBX 10 14 1 0
BITMAP
0FC0
1FC0
3980
3180
FD80
FD80
3180
6300
6300
6300
6300
6700
C600
C600
ENDCHAR
STARTCHAR y-hat.uni0177
ENCODING 375
SWIDTH 557 0
DWIDTH 10 0
BBX 11 18 0 -4
BITMAP
0300
0700
0C80
0000
30E0
30C0
31C0
3180
3B00
1F00
1E00
1E00
1C00
1800
1800
3000
F000
E000
ENDCHAR
STARTCHAR y-bar.uni0233
ENCODING 563
SWIDTH 557 0
DWIDTH 10 0
BBX 11 18 0 -4
BITMAP
0FC0
0FC0
0000
0000
30E0
30C0
31C0
3180
3B00
1F00
1E00
1E00
1C00
1800
1800
3000
F000
E000
ENDCHAR
STARTCHAR xsuperior.uni02E3
ENCODING 739
SWIDTH 832 0
DWIDTH 10 0
BBX 7 7 1 6
BITMAP
6600
6600
3800
1800
3800
CC00
CC00
ENDCHAR
STARTCHAR x-hat.uni0302
ENCODING 770
SWIDTH 557 0
DWIDTH 10 0
BBX 11 14 -1 0
BITMAP
0180
0380
0640
0000
18E0
1DC0
0F80
0F00
0600
0E00
1F00
3B00
7380
E180
ENDCHAR
STARTCHAR x-bar.uni0304
ENCODING 772
SWIDTH 557 0
DWIDTH 10 0
BBX 11 14 -1 0
BITMAP
07E0
07E0
0000
0000
18E0
1DC0
0F80
0F00
0600
0E00
1F00
3B00
7380
E180
ENDCHAR
STARTCHAR Sigma.uni03A3
ENCODING 931
SWIDTH 557 0
DWIDTH 10 0
BBX 10 13 1 0
BITMAP
3FC0
3FC0
1800
0C00
0600
0600
0300
0600
1C00
3000
6000
FF00
FF00
ENDCHAR
STARTCHAR theta.uni03B8
ENCODING 952
SWIDTH 832 0
DWIDTH 10 0
BBX 9 13 1 0
BITMAP
0F00
3F00
3180
6180
6180
C180
FF80
C180
C300
C300
C600
7E00
7800
ENDCHAR
STARTCHAR mu.uni03BC
ENCODING 956
SWIDTH 557 0
DWIDTH 10 0
BBX 9 14 0 -4
BITMAP
3180
3180
3180
7180
6180
6300
6300
6700
7F80
7980
E000
C000
C000
C000
ENDCHAR
STARTCHAR sigma.uni03C3
ENCODING 963
SWIDTH 832 0
DWIDTH 10 0
BBX 9 10 1 0
BITMAP
1F80
3F80
6600
6300
C300
C300
C300
C600
FE00
7800
ENDCHAR
STARTCHAR exponent.uni1D07
ENCODING 7431
SWIDTH 557 0
DWIDTH 10 0
BBX 8 10 2 1
BITMAP
3F00
3F00
3000
3000
7E00
7E00
6000
6000
FE00
FE00
ENDCHAR
STARTCHAR arrowleft.uni2190
ENCODING 8592
SWIDTH 557 0
DWIDTH 10 0
BBX 9 10 0 1
BITMAP
0800
1800
3000
7000
FF80
FF80
7000
3000
1800
0800
ENDCHAR
STARTCHAR arrowup.uni2191
ENCODING 8593
SWIDTH 557 0
DWIDTH 10 0
BBX 8 17 1 -4
BITMAP
1800
3C00
7E00
DB00
1800
1800
1800
1800
1800
1800
1800
1800
1800
1800
1800
1800
1800
ENDCHAR
STARTCHAR arrowright.uni2192
ENCODING 8594
SWIDTH 557 0
DWIDTH 10 0
BBX 9 10 1 1
BITMAP
0800
0C00
0600
0700
FF80
FF80
0700
0600
0C00
0800
ENDCHAR
STARTCHAR arrowdown.uni2193
ENCODING 8595
SWIDTH 557 0
DWIDTH 10 0
BBX 8 17 1 -4
BITMAP
1800
1800
1800
1800
1800
1800
1800
1800
1800
1800
1800
1800
1800
DB00
7E00
3C00
1800
ENDCHAR
STARTCHAR uparrtipleft.uni21B0
ENCODING 8624
SWIDTH 832 0
DWIDTH 10 0
BBX 8 14 1 0
BITMAP
1000
3000
6000
FE00
FF00
6300
3300
1300
0300
0300
0300
0300
0300
0300
ENDCHAR
STARTCHAR uparrtipright.uni21B1
ENCODING 8625
SWIDTH 832 0
DWIDTH 10 0
BBX 8 14 1 0
BITMAP
0800
0C00
0600
7F00
FF00
C600
CC00
C800
C000
C000
C000
C000
C000
C000
ENDCHAR
STARTCHAR carriagereturn.uni21B5
ENCODING 8629
SWIDTH 557 0
DWIDTH 10 0
BBX 8 14 1 -1
BITMAP
0300
0300
0300
0300
0300
0300
1300
3300
6300
FF00
FE00
6000
3000
1000
ENDCHAR
STARTCHAR mesangle.uni2221
ENCODING 8737
SWIDTH 557 0
DWIDTH 10 0
BBX 10 12 0 0
BITMAP
0300
0600
0600
0C00
0C00
1800
1C00
3600
3200
6300
6300
FFC0
ENDCHAR
STARTCHAR eqminus.uni23BB
ENCODING 9147
SWIDTH 832 0
DWIDTH 10 0
BBX 8 2 1 9
BITMAP
FF00
FF00
ENDCHAR
STARTCHAR lf.uni240A
ENCODING 9226
SWIDTH 557 0
DWIDTH 10 0
BBX 10 15 0 -1
BITMAP
C000
C000
C000
C000
C000
C000
F000
07C0
0600
0600
0600
0780
0600
0600
0600
ENDCHAR
STARTCHAR esc.uni241B
ENCODING 9243
SWIDTH 557 0
DWIDTH 10 0
BBX 10 17 0 -3
BITMAP
E000
8000
8000
C000
8000
8600
E800
0800
0400
0200
02C0
0D00
0100
0100
0100
0100
00C0
ENDCHAR
STARTCHAR bdlvr.uni251C
ENCODING 9500
SWIDTH 557 0
DWIDTH 10 0
BBX 6 16 3 -2
BITMAP
8000
8000
8000
8000
8000
8000
8000
8000
FC00
8000
8000
8000
8000
8000
8000
8000
ENDCHAR
STARTCHAR block.uni2588
ENCODING 9608
SWIDTH 832 0
DWIDTH 10 0
BBX 10 19 0 -3
BITMAP
FFC0
FFC0
FFC0
FFC0
FFC0
FFC0
FFC0
FFC0
FFC0
FFC0
FFC0
FFC0
FFC0
FFC0
FFC0
FFC0
FFC0
FFC0
FFC0
ENDCHAR
STARTCHAR shade.uni2592
ENCODING 9618
SWIDTH 557 0
DWIDTH 10 0
BBX 10 19 0 -3
BITMAP
5540
0000
AA80
0000
5540
0000
AA80
0000
5540
0000
AA80
0000
5540
0000
AA80
0000
5540
0000
AA80
ENDCHAR
STARTCHAR filledbox.uni25A0
ENCODING 9632
SWIDTH 557 0
DWIDTH 10 0
BBX 7 8 2 1
BITMAP
FE00
FE00
FE00
FE00
FE00
FE00
FE00
FE00
ENDCHAR
STARTCHAR triagup.uni25B2
ENCODING 9650
SWIDTH 557 0
DWIDTH 10 0
BBX 10 9 0 1
BITMAP
0C00
0C00
1E00
1E00
3F00
3F00
7F80
7F80
FFC0
ENDCHAR
STARTCHAR triagright.uni25B6
ENCODING 9654
SWIDTH 557 0
DWIDTH 10 0
BBX 10 9 0 1
BITMAP
C000
F000
FC00
FF00
FFC0
FF00
FC00
F000
C000
ENDCHAR
STARTCHAR triagdn.uni25BC
ENCODING 9660
SWIDTH 557 0
DWIDTH 10 0
BBX 10 9 0 0
BITMAP
FFC0
7F80
7F80
3F00
3F00
1E00
1E00
0C00
0C00
ENDCHAR
STARTCHAR boldparleft.uni27EA
ENCODING 10218
SWIDTH 557 0
DWIDTH 10 0
BBX 8 16 2 -2
BITMAP
0F00
1E00
1C00
3C00
7800
7800
7800
F000
F000
F000
F000
F000
F000
7000
7800
7800
ENDCHAR
STARTCHAR boldparright.uni27EB
ENCODING 10219
SWIDTH 557 0
DWIDTH 10 0
BBX 8 16 1 -2
BITMAP
1E00
1E00
0E00
0F00
0F00
0F00
0F00
0F00
0F00
1E00
1E00
1E00
3C00
3800
7800
F000
ENDCHAR
STARTCHAR lozenge.uni25CA
ENCODING 9674
SWIDTH 557 0
DWIDTH 10 0
BBX 8 17 1 -3
BITMAP
1800
1800
2400
2400
2400
4200
4200
8100
8100
8100
4200
4200
2400
2400
2400
1800
1800
ENDCHAR
STARTCHAR triagleft.uni25C0
ENCODING 9664
SWIDTH 557 0
DWIDTH 10 0
BBX 10 9 0 1
BITMAP
00C0
03C0
0FC0
3FC0
FFC0
3FC0
0FC0
03C0
00C0
ENDCHAR
STARTCHAR germandblS.uni1E9E
ENCODING 7838
SWIDTH 557 0
DWIDTH 10 0
BBX 11 14 0 0
BITMAP
0FE0
1FC0
3980
3300
3600
7C00
6E00
6700
6380
6180
6180
E380
FF00
DE00
ENDCHAR
STARTCHAR Gamma.uni0393
ENCODING 915
SWIDTH 557 0
DWIDTH 10 0
BBX 10 13 1 0
BITMAP
3FC0
3FC0
3000
6000
6000
6000
6000
6000
6000
6000
C000
C000
C000
ENDCHAR
ENDFONT
